<svg xmlns="http://www.w3.org/2000/svg" viewBox="0 0 512 512" width="32" height="32">
  <!-- خلفية دائرية -->
  <circle cx="256" cy="256" r="256" fill="#1a56db"/>
  
  <!-- البلدوزر - جسم رئيسي -->
  <path fill="#ffffff" d="M400 290h-30v-40c0-5.5-4.5-10-10-10h-60c-5.5 0-10 4.5-10 10v40h-30v-80c0-5.5-4.5-10-10-10H130c-5.5 0-10 4.5-10 10v80H90c-5.5 0-10 4.5-10 10v40c0 5.5 4.5 10 10 10h310c5.5 0 10-4.5 10-10v-40c0-5.5-4.5-10-10-10z"/>
  
  <!-- العجلات -->
  <circle cx="140" cy="340" r="30" fill="#0e3fa9"/>
  <circle cx="140" cy="340" r="15" fill="#ffffff"/>
  <circle cx="360" cy="340" r="30" fill="#0e3fa9"/>
  <circle cx="360" cy="340" r="15" fill="#ffffff"/>
  <circle cx="250" cy="340" r="30" fill="#0e3fa9"/>
  <circle cx="250" cy="340" r="15" fill="#ffffff"/>
  
  <!-- شفرة البلدوزر -->
  <path fill="#e0f2fe" d="M90 270H60c-5.5 0-10 4.5-10 10v20c0 5.5 4.5 10 10 10h30c5.5 0 10-4.5 10-10v-20c0-5.5-4.5-10-10-10z"/>
  
  <!-- نافذة القيادة -->
  <rect x="300" y="250" width="40" height="30" fill="#e0f2fe"/>
  
  <!-- تفاصيل إضافية -->
  <path fill="#0e3fa9" d="M400 310h-30v-10h30v10zM90 310H60v-10h30v10z"/>
</svg> 